<?xml version="1.0" encoding="utf-8"?>
<!-- Designed by Vexels.com - 2017 All Rights Reserved - https://vexels.com/terms-and-conditions/  -->

<svg version="1.1" id="Layer_1" xmlns="http://www.w3.org/2000/svg" xmlns:xlink="http://www.w3.org/1999/xlink" x="0px" y="0px"
	 width="1200px" height="1200px" viewBox="0 0 1200 1200" enable-background="new 0 0 1200 1200" xml:space="preserve">
<g>
	<g>
		
			<linearGradient id="SVGID_1_" gradientUnits="userSpaceOnUse" x1="-42.1997" y1="448.0739" x2="971.0674" y2="448.0739" gradientTransform="matrix(-1 0 0 -1 1064.4277 1048.0625)">
			<stop  offset="0.2293" style="stop-color:#A63D82"/>
			<stop  offset="1" style="stop-color:#6D2665"/>
		</linearGradient>
		<path fill="url(#SVGID_1_)" d="M600.005,93.351c-279.35,0-506.645,227.272-506.645,506.634
			c0,279.368,227.295,506.64,506.645,506.64c279.351,0,506.622-227.272,506.622-506.64
			C1106.627,320.623,879.357,93.351,600.005,93.351z"/>
		
			<linearGradient id="SVGID_2_" gradientUnits="userSpaceOnUse" x1="-85.5632" y1="448.0625" x2="1014.4186" y2="448.0625" gradientTransform="matrix(-1 0 0 -1 1064.4277 1048.0625)">
			<stop  offset="0.2293" style="stop-color:#A63D82"/>
			<stop  offset="1" style="stop-color:#6D2665"/>
		</linearGradient>
		<path fill="url(#SVGID_2_)" d="M600.005,50C296.24,50,50.009,296.255,50.009,599.986C50.009,903.746,296.24,1150,600.005,1150
			c303.743,0,549.986-246.254,549.986-550.014C1149.991,296.255,903.748,50,600.005,50z M600.005,1116.269
			c-284.689,0-516.289-231.599-516.289-516.283c0-284.655,231.6-516.279,516.289-516.279c284.678,0,516.266,231.623,516.266,516.279
			C1116.272,884.67,884.683,1116.269,600.005,1116.269z"/>
	</g>
	
		<linearGradient id="SVGID_3_" gradientUnits="userSpaceOnUse" x1="133.5622" y1="483.3455" x2="133.5622" y2="-40.6917" gradientTransform="matrix(1 0 0 1 467.4434 259)">
		<stop  offset="0.2293" style="stop-color:#B368B5"/>
		<stop  offset="1" style="stop-color:#6D2665"/>
	</linearGradient>
	<path fill="url(#SVGID_3_)" d="M1074.191,583.991c0,261.302-946.371,261.302-946.371,0c0-261.321,211.877-473.186,473.197-473.186
		C862.349,110.805,1074.191,322.67,1074.191,583.991z"/>
	<g>
		<path fill="#FFFFFF" d="M619.482,384.851c10.538,0,20.464-4.104,27.921-11.562c15.43-15.395,15.43-40.493,0-55.864
			c-7.457-7.48-17.383-11.585-27.921-11.585c-10.573,0-20.487,4.104-27.944,11.585c-15.407,15.371-15.407,40.469,0,55.864
			C598.995,380.746,608.909,384.851,619.482,384.851z M706.056,471.46c10.573,0,20.5-4.104,27.956-11.585
			c15.407-15.395,15.407-40.471,0-55.878c-7.456-7.444-17.383-11.548-27.956-11.548c-10.538,0-20.476,4.104-27.921,11.548
			c-15.407,15.407-15.407,40.483,0,55.878C685.58,467.355,695.518,471.46,706.056,471.46z M792.665,558.069
			c10.562,0,20.476-4.116,27.944-11.585c7.445-7.456,11.562-17.383,11.562-27.932c0-10.562-4.116-20.488-11.562-27.944
			c-7.468-7.445-17.382-11.586-27.944-11.586c-10.55,0-20.476,4.141-27.932,11.586c-15.407,15.395-15.407,40.469,0,55.877
			C772.188,553.952,782.115,558.069,792.665,558.069z M879.261,644.677c10.562,0,20.476-4.116,27.956-11.597
			c7.468-7.48,11.562-17.406,11.562-27.991c0-10.561-4.094-20.523-11.562-27.979c-7.48-7.468-17.394-11.585-27.956-11.585
			c-10.561,0-20.476,4.116-27.932,11.585c-7.456,7.456-11.585,17.418-11.562,27.979c-0.023,10.585,4.106,20.511,11.562,27.991
			C858.785,640.561,868.701,644.677,879.261,644.677z M340.179,644.608c21.806,0,39.518-17.736,39.518-39.518
			c0-21.794-17.712-39.494-39.518-39.494c-21.77,0-39.494,17.7-39.494,39.494C300.685,626.871,318.409,644.608,340.179,644.608z
			 M462.659,644.608c21.782,0,39.518-17.736,39.518-39.518c0-21.794-17.736-39.494-39.518-39.494
			c-21.781,0-39.505,17.7-39.505,39.494C423.154,626.871,440.877,644.608,462.659,644.608z M585.116,644.608
			c21.782,0,39.541-17.736,39.541-39.518c0-10.561-4.116-20.464-11.585-27.932c-7.456-7.457-17.406-11.562-27.956-11.562
			c-21.769,0-39.494,17.7-39.494,39.494C545.622,626.871,563.347,644.608,585.116,644.608z M707.596,644.608
			c21.794,0,39.518-17.736,39.518-39.518c0-21.794-17.724-39.494-39.518-39.494c-21.782,0-39.517,17.7-39.517,39.494
			C668.079,626.871,685.792,644.608,707.596,644.608z M792.665,731.157c10.573,0,20.476-4.116,27.944-11.55
			c7.445-7.48,11.562-17.394,11.562-27.944c0-10.562-4.116-20.488-11.562-27.968c-7.468-7.444-17.371-11.56-27.944-11.56
			c-10.55,0-20.476,4.116-27.932,11.56c-15.407,15.419-15.407,40.494,0,55.913C772.188,727.041,782.115,731.157,792.665,731.157z
			 M706.056,817.748c10.573,0,20.5-4.116,27.956-11.572c15.407-15.413,15.407-40.475,0-55.872
			c-7.456-7.48-17.383-11.56-27.956-11.56c-10.538,0-20.452,4.08-27.921,11.56c-15.407,15.396-15.407,40.459,0,55.872
			C685.604,813.632,695.518,817.748,706.056,817.748z M619.482,904.357c10.538,0,20.464-4.116,27.921-11.597
			c15.43-15.383,15.43-40.457,0-55.864c-7.457-7.433-17.383-11.55-27.921-11.55c-10.573,0-20.487,4.116-27.944,11.55
			c-15.407,15.407-15.407,40.481,0,55.864C598.995,900.241,608.909,904.357,619.482,904.357z"/>
	</g>
</g>
</svg>
